<svg class="icon" style="width: 1em;height: 1em;vertical-align: middle;fill: currentColor;overflow: hidden;" viewBox="0 0 1024 1024" version="1.1" xmlns="http://www.w3.org/2000/svg" p-id="1416"><path d="M768 512v341.333333H256v-341.333333zM512 85.333333a256 256 0 0 0-256 256v85.333334a85.333333 85.333333 0 0 0-85.333333 85.333333v341.333333a85.333333 85.333333 0 0 0 85.333333 85.333334h512a85.333333 85.333333 0 0 0 85.333333-85.333334v-341.333333a85.333333 85.333333 0 0 0-85.333333-85.333333V341.333333a256 256 0 0 0-256-256z m-170.666667 341.333334V341.333333a170.666667 170.666667 0 0 1 341.333334 0v85.333334z" p-id="1417"></path><path d="M426.666667 597.333333m42.666666 0l85.333334 0q42.666667 0 42.666666 42.666667l0 85.333333q0 42.666667-42.666666 42.666667l-85.333334 0q-42.666667 0-42.666666-42.666667l0-85.333333q0-42.666667 42.666666-42.666667Z" p-id="1418"></path></svg>