<svg width="24" height="24" viewBox="0 0 24 24" fill="none" class="pui-components-global-nav-index-nav-item-icon">
    <path d="M2 6.8C2 5.11984 2 4.27976 2.32698 3.63803C2.6146 3.07354 3.07354 2.6146 3.63803 2.32698C4.27976 2 5.11984 2 6.8 2H17.2C18.8802 2 19.7202 2 20.362 2.32698C20.9265 2.6146 21.3854 3.07354 21.673 3.63803C22 4.27976 22 5.11984 22 6.8V9.88675L18.5 7.86603C17.5718 7.33013 16.4282 7.33013 15.5 7.86603L10.7058 10.634C9.77757 11.1699 9.20577 12.1603 9.20577 13.2321V16H6.8C5.11984 16 4.27976 16 3.63803 15.673C3.07354 15.3854 2.6146 14.9265 2.32698 14.362C2 13.7202 2 12.8802 2 11.2V6.8Z"
          fill="var(--app-nav-primary, #436FF6)"></path>
    <path d="M9.20577 17H6C4.89543 17 4 17.8954 4 19C4 20.1046 4.89543 21 6 21H10.2012C9.5748 20.4375 9.20577 19.629 9.20577 18.768V17Z"
          fill="var(--app-nav-primary, #436FF6)"></path>
    <rect x="4" y="5" width="9" height="2" rx="1" fill="var(--app-nav-bg, var(--app-bg-300)"></rect>
    <rect x="4" y="9" width="5" height="2" rx="1" fill="var(--app-nav-bg, var(--app-bg-300)"></rect>
    <path d="M15.5 9.86603C16.4282 9.33013 17.5718 9.33013 18.5 9.86603L21.5622 11.634C22.4904 12.1699 23.0622 13.1603 23.0622 14.2321V17.7679C23.0622 18.8397 22.4904 19.8301 21.5622 20.366L18.5 22.134C17.5718 22.6699 16.4282 22.6699 15.5 22.134L12.4378 20.366C11.5096 19.8301 10.9378 18.8397 10.9378 17.7679V14.2321C10.9378 13.1603 11.5096 12.1699 12.4378 11.634L15.5 9.86603Z"
          fill="var(--app-nav-secondary, #61D3BA)"></path>
    <circle cx="17" cy="16" r="3" fill="var(--app-nav-bg, var(--app-bg-300)"></circle>
    <circle cx="17" cy="16" r="1.5" fill="var(--app-nav-secondary, #61D3BA)"></circle>
</svg>